<?xml version="1.0" encoding="utf-8"?>
<!-- Generator: Adobe Illustrator 16.0.0, SVG Export Plug-In . SVG Version: 6.00 Build 0)  -->
<!DOCTYPE svg PUBLIC "-//W3C//DTD SVG 1.1//EN" "http://www.w3.org/Graphics/SVG/1.1/DTD/svg11.dtd">
<svg version="1.1" id="Capa_2" xmlns="http://www.w3.org/2000/svg" xmlns:xlink="http://www.w3.org/1999/xlink" x="0px" y="0px"
	 width="1280px" height="751.8px" viewBox="0 0 1280 751.8" enable-background="new 0 0 1280 751.8" xml:space="preserve">
<linearGradient id="SVGID_1_" gradientUnits="userSpaceOnUse" x1="496.4834" y1="458.1924" x2="593.0498" y2="458.1924">
	<stop  offset="0.0617" style="stop-color:#E59E03"/>
	<stop  offset="0.0695" style="stop-color:#E5A003"/>
	<stop  offset="0.1596" style="stop-color:#E5B102"/>
	<stop  offset="0.2714" style="stop-color:#E5BC01"/>
	<stop  offset="0.4286" style="stop-color:#E5C300"/>
	<stop  offset="0.8652" style="stop-color:#E5C500"/>
</linearGradient>
<path fill="url(#SVGID_1_)" d="M560.729,425.391h32.32v-41.307c0,0-3.702-31.992-48.372-31.992s-48.194,31.992-48.194,31.992
	v142.868c0,0,7.975,37.34,48.283,37.34s48.283-36.568,48.283-36.568v-43.209h-32.32v41.281c0,0-1.576,9.641-15.963,9.641
	s-14.387-8.87-14.387-8.87V395.052c0,0-1.576-13.736,14.387-13.884s15.963,10.799,15.963,10.799V425.391z"/>
<linearGradient id="SVGID_2_" gradientUnits="userSpaceOnUse" x1="636.6978" y1="461.0566" x2="669.0332" y2="461.0566">
	<stop  offset="0.0617" style="stop-color:#E59E03"/>
	<stop  offset="0.0695" style="stop-color:#E5A003"/>
	<stop  offset="0.1596" style="stop-color:#E5B102"/>
	<stop  offset="0.2714" style="stop-color:#E5BC01"/>
	<stop  offset="0.4286" style="stop-color:#E5C300"/>
	<stop  offset="0.8652" style="stop-color:#E5C500"/>
</linearGradient>
<rect x="636.698" y="362.545" fill="url(#SVGID_2_)" width="32.335" height="197.022"/>
<linearGradient id="SVGID_3_" gradientUnits="userSpaceOnUse" x1="713.4014" y1="461.0566" x2="809.6553" y2="461.0566">
	<stop  offset="0.0617" style="stop-color:#E59E03"/>
	<stop  offset="0.0695" style="stop-color:#E5A003"/>
	<stop  offset="0.1596" style="stop-color:#E5B102"/>
	<stop  offset="0.2714" style="stop-color:#E5BC01"/>
	<stop  offset="0.4286" style="stop-color:#E5C300"/>
	<stop  offset="0.8652" style="stop-color:#E5C500"/>
</linearGradient>
<polygon fill="url(#SVGID_3_)" points="713.401,362.545 713.401,392.249 744.984,392.249 744.984,559.567 777.695,559.567 
	777.695,392.249 809.655,392.249 809.655,362.545 "/>
<linearGradient id="SVGID_4_" gradientUnits="userSpaceOnUse" x1="851.7666" y1="461.0557" x2="949.167" y2="461.0557">
	<stop  offset="0.0617" style="stop-color:#E59E03"/>
	<stop  offset="0.0695" style="stop-color:#E5A003"/>
	<stop  offset="0.1596" style="stop-color:#E5B102"/>
	<stop  offset="0.2714" style="stop-color:#E5BC01"/>
	<stop  offset="0.4286" style="stop-color:#E5C300"/>
	<stop  offset="0.8652" style="stop-color:#E5C500"/>
</linearGradient>
<path fill="url(#SVGID_4_)" d="M884.479,478.347v81.221h-32.712V362.545h48.4c0,0,44.846-0.846,44.846,41.79c0,26.266,0,22.5,0,22.5
	s0.322,21.666-18.512,32.833c0,0,18.512,9.134,18.512,31.667s0,53.834,0,53.834s2.623,14.398,4.154,14.398h-33.292
	c0,0-3.574-8.317-3.574-17.317s0-49.625,0-49.625s-0.426-15.875-13.551-15.875s-14.271,0-14.271,0V478.347z"/>
<linearGradient id="SVGID_5_" gradientUnits="userSpaceOnUse" x1="993.4502" y1="461.0557" x2="1086.5977" y2="461.0557">
	<stop  offset="0.0617" style="stop-color:#E59E03"/>
	<stop  offset="0.0695" style="stop-color:#E5A003"/>
	<stop  offset="0.1596" style="stop-color:#E5B102"/>
	<stop  offset="0.2714" style="stop-color:#E5BC01"/>
	<stop  offset="0.4286" style="stop-color:#E5C300"/>
	<stop  offset="0.8652" style="stop-color:#E5C500"/>
</linearGradient>
<path fill="url(#SVGID_5_)" d="M993.516,362.545v138.367c0,0-3.85,58.655,47.484,58.655s45.387-58.655,45.387-58.655l0.211-138.367
	l-30.667-0.001v153.791c0,0-1.051,17.167-15.907,17.167s-13.796-16.667-13.796-16.667v-154.29H993.516z"/>
<linearGradient id="SVGID_6_" gradientUnits="userSpaceOnUse" x1="1133.7832" y1="461.0566" x2="1226.376" y2="461.0566">
	<stop  offset="0.0617" style="stop-color:#E59E03"/>
	<stop  offset="0.0695" style="stop-color:#E5A003"/>
	<stop  offset="0.1596" style="stop-color:#E5B102"/>
	<stop  offset="0.2714" style="stop-color:#E5BC01"/>
	<stop  offset="0.4286" style="stop-color:#E5C300"/>
	<stop  offset="0.8652" style="stop-color:#E5C500"/>
</linearGradient>
<path fill="url(#SVGID_6_)" d="M1193.921,419.321h30.455V399.5c0,0-2.876-36.955-44.876-36.955s-47.618,33.831-47.618,38.955
	s-3.456,41,30.456,65.5s40.07,66.25,15.741,66.25c-22.079,0.75-15.741-32.338-15.741-32.338h-30.555l0.099,16.088
	c0,0-2.008,42.567,44.368,42.567s48.126-39.118,48.126-58.655c0-13.038-14.534-35.912-30.455-49.662s-29.421-21.75-29.171-48
	c0.25-9.5,4.658-13.25,13.329-13C1197.25,390.75,1193.921,419.321,1193.921,419.321z"/>
<line fill="none" stroke="#FFD82A" stroke-miterlimit="10" x1="1224.376" y1="419.321" x2="1224.376" y2="399.5"/>
<path fill="#FFFFFF" stroke="#FFFFFF" stroke-miterlimit="10" d="M884.479,392.249v54.626c0,0,27.822,4.576,27.822-16.274
	s0-24.351,0-24.351S915.332,392.249,884.479,392.249z"/>
<linearGradient id="SVGID_7_" gradientUnits="userSpaceOnUse" x1="70.2705" y1="421.3164" x2="669.0332" y2="421.3164">
	<stop  offset="0.0617" style="stop-color:#E59E03"/>
	<stop  offset="0.0695" style="stop-color:#E5A003"/>
	<stop  offset="0.1596" style="stop-color:#E5B102"/>
	<stop  offset="0.2714" style="stop-color:#E5BC01"/>
	<stop  offset="0.4286" style="stop-color:#E5C300"/>
	<stop  offset="0.8652" style="stop-color:#E5C500"/>
</linearGradient>
<path fill="url(#SVGID_7_)" d="M669.033,323.066C669.033,323.066,571,117,398,117C157.5,117,96.5,298.132,87,323.066
	S57.5,426.5,82,500.912C94,531,166,731.5,399,725.5c47.5-3.5,178-21.5,234-137.732h-37.333C595.667,587.768,556,673,402,673
	c-121.5-1.5-186-85.232-186-85.232S138.5,514,151.5,392.249C151.5,383,189.5,171,405.5,165C434,165,556,165,633,323.066"/>
<linearGradient id="SVGID_8_" gradientUnits="userSpaceOnUse" x1="80.9551" y1="112.0957" x2="227.667" y2="112.0957">
	<stop  offset="0.0617" style="stop-color:#E59E03"/>
	<stop  offset="0.0695" style="stop-color:#E5A003"/>
	<stop  offset="0.1596" style="stop-color:#E5B102"/>
	<stop  offset="0.2714" style="stop-color:#E5BC01"/>
	<stop  offset="0.4286" style="stop-color:#E5C300"/>
	<stop  offset="0.8652" style="stop-color:#E5C500"/>
</linearGradient>
<path fill="url(#SVGID_8_)" d="M150,205.333c0,0-28.667-24.666,0-28.333s39-41.333,39-41.333s11.667-21,13.667-57.333
	s25-59.333,25-59.333s-41.148-4.333-90.407,34.667S63.333,140,95.333,179.334C115.333,199.667,150,205.333,150,205.333z"/>
<path fill="#FFFFFF" d="M156.667,81c0,0-25.333,13-35.333,55c-5.333,14.667-14,29-15.333,7s22.333-73.333,78.667-98.667
	c0,0-14,15.667-12,47.667S155,154.334,137,161.667c-12.667,3.667-9-12.333-6-18S156.333,99,156.667,81z"/>
</svg>
