<?xml version="1.0" encoding="utf-8"?>
<!-- Generator: Adobe Illustrator 23.1.0, SVG Export Plug-In . SVG Version: 6.00 Build 0)  -->
<svg version="1.1" id="Capa_1" xmlns="http://www.w3.org/2000/svg" xmlns:xlink="http://www.w3.org/1999/xlink" x="0px" y="0px"
	 viewBox="0 0 1000 600" style="enable-background:new 0 0 1000 600;" xml:space="preserve">
<style type="text/css">
	.st0{fill:#116530;}
	.st1{fill:#ADADAD;}
</style>
<g>
	<g>
		<path class="st0" d="M579.2,188.4c1.4-3.2,2.7-6.6,3.8-10c4-10.2,6.2-21.2,6.2-32.8c0-49.4-40.1-89.5-89.5-89.5
			s-89.5,40.1-89.5,89.5c0,4.6,0.3,9.1,1,13.5l-0.5,0c0,0,1.4,12.2,9.5,30.1c-18.7,12.9-30.1,30.3-30.1,49.5
			c0,39.8,49.3,72,110.2,72c60.9,0,110.2-32.2,110.2-72C610.4,219.1,598.5,201.4,579.2,188.4z M447.8,131.5l4.5-12.4
			c0.4-1.1,1.6-1.6,2.6-1.2l11.6,2.1c2.1-3,4.7-5.6,7.5-7.9l-2.9-11.5c-0.4-1,0-2.2,1.1-2.7l12.1-5.2c1-0.4,2.2,0,2.7,1.1l6.1,9.5
			c2.3-0.4,4.7-0.6,7.2-0.6c1.5,0,3,0.1,4.5,0.2l5.5-9.9c0.4-1.1,1.6-1.6,2.6-1.2l12.4,4.6c1.1,0.4,1.6,1.6,1.2,2.6l-2.1,11.3
			c3.1,2.2,6,4.9,8.4,7.9l11-3c1-0.5,2.2,0,2.7,1l5.5,12c0.5,1,0,2.2-1,2.7l-9.6,6.5c0.4,2.2,0.6,4.5,0.6,6.8c0,1.5-0.1,2.9-0.2,4.3
			l9.8,6c1,0.4,1.5,1.6,1.1,2.7l-5,12.2c-0.4,1-1.6,1.5-2.7,1.1l-10.5-2.4c-2.3,3.3-5,6.2-8.1,8.7l2.9,10.8c0.5,1,0,2.3-1,2.7
			l-12,5.4c-1,0.5-2.2,0-2.7-1l-6.3-9.4c-2.2,0.4-4.5,0.6-6.9,0.6c-1.6,0-3.1-0.1-4.6-0.3l-5.9,9.6c-0.4,1-1.6,1.5-2.7,1.1
			l-12.2-5.1c-1-0.4-1.5-1.6-1.1-2.7l2.4-10.4c-3.2-2.2-6-4.9-8.4-8l-10.4,3c-1,0.5-2.2,0-2.7-1l-5.6-11.9c-0.5-1,0-2.2,1-2.7
			l9.2-6.4c-0.4-2.3-0.6-4.6-0.6-7c0-1.6,0.1-3.2,0.3-4.7l-9.9-5.5C447.9,133.8,447.4,132.6,447.8,131.5z M499.5,296.3
			c-51.8,0-93.8-26.3-93.8-58.8c0-13.8,7.6-26.5,20.4-36.6c11.9,21.6,32.8,48.3,69.2,72.2c0,0,3.7,3,8.5-0.3
			c5.3-3.7,45.9-29,69.4-71.7c12.7,10,20.3,22.7,20.3,36.5C593.3,270,551.3,296.3,499.5,296.3z"/>
		<path class="st0" d="M500.2,166.3c12.2,0,22.1-9.9,22.1-22.1c0-12.2-9.9-22.1-22.1-22.1c-12.2,0-22.1,9.9-22.1,22.1
			C478.2,156.4,488,166.3,500.2,166.3z"/>
	</g>
	<g>
		<path class="st1" d="M9.4,544.3V361.6h76.2c8.1,0,15.5,1.7,22.3,5c6.8,3.3,12.6,7.8,17.5,13.4c4.9,5.6,8.7,11.8,11.5,18.8
			c2.7,7,4.1,14,4.1,21.2c0,7.6-1.3,14.8-3.9,21.9c-2.6,7-6.2,13.3-10.9,18.8c-4.7,5.5-10.4,9.9-17,13.1c-6.6,3.3-13.9,4.9-22,4.9
			H32.6v65.6H9.4z M32.6,458.1h53.3c4.8,0,9.1-1,13-3c3.9-2,7.2-4.7,9.9-8.2c2.7-3.5,4.9-7.6,6.4-12.2c1.5-4.6,2.3-9.5,2.3-14.7
			c0-5.3-0.9-10.3-2.7-14.9c-1.8-4.6-4.2-8.7-7.2-12.1c-3-3.4-6.5-6.1-10.6-8c-4-1.9-8.3-2.8-12.7-2.8H32.6V458.1z"/>
		<path class="st1" d="M180.1,544.3V361.6h78.3c8.1,0,15.5,1.7,22.3,5c6.8,3.3,12.6,7.8,17.5,13.4c4.9,5.6,8.7,11.8,11.5,18.8
			c2.7,7,4.1,14,4.1,21.2c0,6.4-0.9,12.5-2.7,18.4c-1.8,5.9-4.4,11.3-7.7,16.1c-3.3,4.8-7.4,8.9-12.1,12.4c-4.7,3.4-10,5.9-15.8,7.5
			l44.3,70h-26.3l-41.7-65.6h-48.4v65.6H180.1z M203.3,458.1h55.3c4.8,0,9.1-1,13-3.1c3.9-2.1,7.2-4.8,9.9-8.4
			c2.7-3.5,4.9-7.6,6.4-12.2c1.5-4.6,2.3-9.4,2.3-14.4c0-5.1-0.9-10-2.7-14.5c-1.8-4.5-4.2-8.6-7.2-12.1c-3-3.5-6.5-6.3-10.6-8.2
			c-4-2-8.3-3-12.7-3h-53.8V458.1z"/>
		<path class="st1" d="M483.6,523.8v20.6H359.5V361.6h121.8v20.6h-98.6v59.2h85.7v19.3h-85.7v63.1H483.6z"/>
		<path class="st1" d="M525.6,544.3V361.6h76.2c8.1,0,15.5,1.7,22.3,5c6.8,3.3,12.6,7.8,17.5,13.4c4.9,5.6,8.7,11.8,11.5,18.8
			c2.7,7,4.1,14,4.1,21.2c0,7.6-1.3,14.8-3.9,21.9c-2.6,7-6.2,13.3-10.9,18.8c-4.7,5.5-10.4,9.9-17,13.1c-6.6,3.3-13.9,4.9-22,4.9
			h-54.6v65.6H525.6z M548.7,458.1H602c4.8,0,9.1-1,13-3c3.9-2,7.2-4.7,9.9-8.2c2.7-3.5,4.9-7.6,6.4-12.2c1.5-4.6,2.3-9.5,2.3-14.7
			c0-5.3-0.9-10.3-2.7-14.9c-1.8-4.6-4.2-8.7-7.2-12.1c-3-3.4-6.5-6.1-10.6-8c-4-1.9-8.3-2.8-12.7-2.8h-51.7V458.1z"/>
		<path class="st1" d="M738.7,361.6h19.6l74.7,182.8h-24.7l-21.6-53.5h-76.7l-21.4,53.5h-24.7L738.7,361.6z M781.5,472.8l-33-84.4
			l-34,84.4H781.5z"/>
		<path class="st1" d="M854.6,361.6l55.3,95.2l55.9-95.2H991l-69.5,116.1v66.7h-23.2v-67.2l-69.2-115.6H854.6z"/>
	</g>
</g>
</svg>
